<mxfile host="app.diagrams.net" modified="2024-04-26T23:09:50.333Z" agent="Mozilla/5.0 (Windows NT 10.0; Win64; x64) AppleWebKit/537.36 (KHTML, like Gecko) Chrome/124.0.0.0 Safari/537.36" etag="eThkoD1XDYO1qdAfrroK" version="24.2.7" type="device">
  <diagram name="Página-1" id="vbeF1pL7EP3a0BnZmbZ4">
    <mxGraphModel dx="1247" dy="642" grid="0" gridSize="10" guides="1" tooltips="0" connect="1" arrows="1" fold="1" page="0" pageScale="1" pageWidth="827" pageHeight="1169" math="0" shadow="0">
      <root>
        <mxCell id="0" />
        <mxCell id="1" parent="0" />
        <mxCell id="90iIxKaVmGGHc_GEmaOm-35" value="Lambda" style="sketch=0;points=[[0,0,0],[0.25,0,0],[0.5,0,0],[0.75,0,0],[1,0,0],[0,1,0],[0.25,1,0],[0.5,1,0],[0.75,1,0],[1,1,0],[0,0.25,0],[0,0.5,0],[0,0.75,0],[1,0.25,0],[1,0.5,0],[1,0.75,0]];outlineConnect=0;fontColor=#232F3E;fillColor=#ED7100;strokeColor=#ffffff;dashed=0;verticalLabelPosition=bottom;verticalAlign=top;align=center;html=1;fontSize=12;fontStyle=0;aspect=fixed;shape=mxgraph.aws4.resourceIcon;resIcon=mxgraph.aws4.lambda;" parent="1" vertex="1">
          <mxGeometry x="562.52" y="360" width="78" height="78" as="geometry" />
        </mxCell>
        <mxCell id="90iIxKaVmGGHc_GEmaOm-36" value="S3 Raw" style="sketch=0;points=[[0,0,0],[0.25,0,0],[0.5,0,0],[0.75,0,0],[1,0,0],[0,1,0],[0.25,1,0],[0.5,1,0],[0.75,1,0],[1,1,0],[0,0.25,0],[0,0.5,0],[0,0.75,0],[1,0.25,0],[1,0.5,0],[1,0.75,0]];outlineConnect=0;fontColor=#232F3E;fillColor=#7AA116;strokeColor=#ffffff;dashed=0;verticalLabelPosition=bottom;verticalAlign=top;align=center;html=1;fontSize=12;fontStyle=0;aspect=fixed;shape=mxgraph.aws4.resourceIcon;resIcon=mxgraph.aws4.s3;" parent="1" vertex="1">
          <mxGeometry x="180" y="200.26" width="78" height="78" as="geometry" />
        </mxCell>
        <mxCell id="90iIxKaVmGGHc_GEmaOm-37" value="Trusted" style="sketch=0;points=[[0,0,0],[0.25,0,0],[0.5,0,0],[0.75,0,0],[1,0,0],[0,1,0],[0.25,1,0],[0.5,1,0],[0.75,1,0],[1,1,0],[0,0.25,0],[0,0.5,0],[0,0.75,0],[1,0.25,0],[1,0.5,0],[1,0.75,0]];outlineConnect=0;fontColor=#232F3E;fillColor=#7AA116;strokeColor=#ffffff;dashed=0;verticalLabelPosition=bottom;verticalAlign=top;align=center;html=1;fontSize=12;fontStyle=0;aspect=fixed;shape=mxgraph.aws4.resourceIcon;resIcon=mxgraph.aws4.s3;" parent="1" vertex="1">
          <mxGeometry x="300" y="360" width="78" height="78" as="geometry" />
        </mxCell>
        <mxCell id="90iIxKaVmGGHc_GEmaOm-39" value="" style="shape=image;verticalLabelPosition=bottom;labelBackgroundColor=default;verticalAlign=top;aspect=fixed;imageAspect=0;image=https://upload.wikimedia.org/wikipedia/commons/thumb/3/30/Google_Sheets_logo_%282014-2020%29.svg/800px-Google_Sheets_logo_%282014-2020%29.svg.png;" parent="1" vertex="1">
          <mxGeometry x="640.52" y="602.95" width="60" height="82.05" as="geometry" />
        </mxCell>
        <mxCell id="WRkgYcZH0lLzMve-OO3r-22" style="edgeStyle=orthogonalEdgeStyle;rounded=0;orthogonalLoop=1;jettySize=auto;html=1;exitX=1;exitY=0.5;exitDx=0;exitDy=0;exitPerimeter=0;entryX=0;entryY=0.5;entryDx=0;entryDy=0;" edge="1" parent="1" source="90iIxKaVmGGHc_GEmaOm-40" target="90iIxKaVmGGHc_GEmaOm-39">
          <mxGeometry relative="1" as="geometry" />
        </mxCell>
        <mxCell id="WRkgYcZH0lLzMve-OO3r-23" value="Visualização&lt;div&gt;Auto Atendimento&lt;/div&gt;" style="edgeLabel;html=1;align=center;verticalAlign=middle;resizable=0;points=[];" vertex="1" connectable="0" parent="WRkgYcZH0lLzMve-OO3r-22">
          <mxGeometry x="0.2609" y="-1" relative="1" as="geometry">
            <mxPoint x="-15" y="-15" as="offset" />
          </mxGeometry>
        </mxCell>
        <mxCell id="90iIxKaVmGGHc_GEmaOm-40" value="RDS" style="sketch=0;points=[[0,0,0],[0.25,0,0],[0.5,0,0],[0.75,0,0],[1,0,0],[0,1,0],[0.25,1,0],[0.5,1,0],[0.75,1,0],[1,1,0],[0,0.25,0],[0,0.5,0],[0,0.75,0],[1,0.25,0],[1,0.5,0],[1,0.75,0]];outlineConnect=0;fontColor=#232F3E;fillColor=#C925D1;strokeColor=#ffffff;dashed=0;verticalLabelPosition=bottom;verticalAlign=top;align=center;html=1;fontSize=12;fontStyle=0;aspect=fixed;shape=mxgraph.aws4.resourceIcon;resIcon=mxgraph.aws4.rds;" parent="1" vertex="1">
          <mxGeometry x="440" y="605" width="78" height="78" as="geometry" />
        </mxCell>
        <mxCell id="WRkgYcZH0lLzMve-OO3r-19" style="edgeStyle=orthogonalEdgeStyle;rounded=0;orthogonalLoop=1;jettySize=auto;html=1;exitX=1;exitY=0.5;exitDx=0;exitDy=0;" edge="1" parent="1" source="90iIxKaVmGGHc_GEmaOm-41" target="90iIxKaVmGGHc_GEmaOm-36">
          <mxGeometry relative="1" as="geometry" />
        </mxCell>
        <mxCell id="90iIxKaVmGGHc_GEmaOm-41" value="Base Petfinder" style="shape=image;verticalLabelPosition=bottom;labelBackgroundColor=default;verticalAlign=top;aspect=fixed;imageAspect=0;image=https://upload.wikimedia.org/wikipedia/commons/thumb/c/c6/.csv_icon.svg/1200px-.csv_icon.svg.png;" parent="1" vertex="1">
          <mxGeometry x="10" y="200.26" width="79" height="79" as="geometry" />
        </mxCell>
        <mxCell id="90iIxKaVmGGHc_GEmaOm-52" value="" style="edgeStyle=orthogonalEdgeStyle;html=1;endArrow=block;elbow=vertical;startArrow=none;endFill=1;strokeColor=#545B64;rounded=0;exitX=1;exitY=0.5;exitDx=0;exitDy=0;entryX=0;entryY=0.5;entryDx=0;entryDy=0;entryPerimeter=0;" parent="1" source="90iIxKaVmGGHc_GEmaOm-38" target="90iIxKaVmGGHc_GEmaOm-40" edge="1">
          <mxGeometry width="100" relative="1" as="geometry">
            <mxPoint x="540" y="731" as="sourcePoint" />
            <mxPoint x="640" y="731" as="targetPoint" />
          </mxGeometry>
        </mxCell>
        <mxCell id="90iIxKaVmGGHc_GEmaOm-61" value="Guarda resultado das&lt;div&gt;execuções dos modelos&lt;/div&gt;" style="edgeLabel;html=1;align=center;verticalAlign=middle;resizable=0;points=[];" parent="90iIxKaVmGGHc_GEmaOm-52" vertex="1" connectable="0">
          <mxGeometry x="0.0056" y="3" relative="1" as="geometry">
            <mxPoint x="-2" y="-11" as="offset" />
          </mxGeometry>
        </mxCell>
        <mxCell id="90iIxKaVmGGHc_GEmaOm-56" value="" style="group" parent="1" vertex="1" connectable="0">
          <mxGeometry x="69.99999999999999" y="459" width="210" height="370" as="geometry" />
        </mxCell>
        <mxCell id="90iIxKaVmGGHc_GEmaOm-38" value="Ambiente Python" style="fillColor=none;strokeColor=#5A6C86;dashed=1;verticalAlign=top;fontStyle=0;fontColor=#5A6C86;whiteSpace=wrap;html=1;" parent="90iIxKaVmGGHc_GEmaOm-56" vertex="1">
          <mxGeometry x="50" width="160" height="370" as="geometry" />
        </mxCell>
        <mxCell id="90iIxKaVmGGHc_GEmaOm-34" value="" style="sketch=0;points=[[0,0,0],[0.25,0,0],[0.5,0,0],[0.75,0,0],[1,0,0],[0,1,0],[0.25,1,0],[0.5,1,0],[0.75,1,0],[1,1,0],[0,0.25,0],[0,0.5,0],[0,0.75,0],[1,0.25,0],[1,0.5,0],[1,0.75,0]];outlineConnect=0;fontColor=#232F3E;fillColor=#ED7100;strokeColor=#ffffff;dashed=0;verticalLabelPosition=bottom;verticalAlign=top;align=center;html=1;fontSize=12;fontStyle=0;aspect=fixed;shape=mxgraph.aws4.resourceIcon;resIcon=mxgraph.aws4.ec2;" parent="90iIxKaVmGGHc_GEmaOm-56" vertex="1">
          <mxGeometry y="146" width="78" height="78" as="geometry" />
        </mxCell>
        <mxCell id="90iIxKaVmGGHc_GEmaOm-42" value="Modelo 1" style="shape=image;verticalLabelPosition=bottom;labelBackgroundColor=default;verticalAlign=top;aspect=fixed;imageAspect=0;image=https://upload.wikimedia.org/wikipedia/commons/thumb/3/38/Jupyter_logo.svg/1767px-Jupyter_logo.svg.png;" parent="90iIxKaVmGGHc_GEmaOm-56" vertex="1">
          <mxGeometry x="104" y="50" width="52" height="60.29" as="geometry" />
        </mxCell>
        <mxCell id="90iIxKaVmGGHc_GEmaOm-43" value="Modelo 2" style="shape=image;verticalLabelPosition=bottom;labelBackgroundColor=default;verticalAlign=top;aspect=fixed;imageAspect=0;image=https://upload.wikimedia.org/wikipedia/commons/thumb/3/38/Jupyter_logo.svg/1767px-Jupyter_logo.svg.png;" parent="90iIxKaVmGGHc_GEmaOm-56" vertex="1">
          <mxGeometry x="104" y="148.85" width="52" height="60.29" as="geometry" />
        </mxCell>
        <mxCell id="90iIxKaVmGGHc_GEmaOm-44" value="Modelo N..." style="shape=image;verticalLabelPosition=bottom;labelBackgroundColor=default;verticalAlign=top;aspect=fixed;imageAspect=0;image=https://upload.wikimedia.org/wikipedia/commons/thumb/3/38/Jupyter_logo.svg/1767px-Jupyter_logo.svg.png;" parent="90iIxKaVmGGHc_GEmaOm-56" vertex="1">
          <mxGeometry x="104" y="250" width="52" height="60.29" as="geometry" />
        </mxCell>
        <mxCell id="WRkgYcZH0lLzMve-OO3r-1" value="SNS" style="sketch=0;points=[[0,0,0],[0.25,0,0],[0.5,0,0],[0.75,0,0],[1,0,0],[0,1,0],[0.25,1,0],[0.5,1,0],[0.75,1,0],[1,1,0],[0,0.25,0],[0,0.5,0],[0,0.75,0],[1,0.25,0],[1,0.5,0],[1,0.75,0]];outlineConnect=0;fontColor=#232F3E;fillColor=#E7157B;strokeColor=#ffffff;dashed=0;verticalLabelPosition=bottom;verticalAlign=top;align=center;html=1;fontSize=12;fontStyle=0;aspect=fixed;shape=mxgraph.aws4.resourceIcon;resIcon=mxgraph.aws4.sns;" vertex="1" parent="1">
          <mxGeometry x="358.74" y="198.74000000000004" width="80.52" height="80.52" as="geometry" />
        </mxCell>
        <mxCell id="WRkgYcZH0lLzMve-OO3r-6" value="SQS" style="sketch=0;points=[[0,0,0],[0.25,0,0],[0.5,0,0],[0.75,0,0],[1,0,0],[0,1,0],[0.25,1,0],[0.5,1,0],[0.75,1,0],[1,1,0],[0,0.25,0],[0,0.5,0],[0,0.75,0],[1,0.25,0],[1,0.5,0],[1,0.75,0]];outlineConnect=0;fontColor=#232F3E;fillColor=#E7157B;strokeColor=#ffffff;dashed=0;verticalLabelPosition=bottom;verticalAlign=top;align=center;html=1;fontSize=12;fontStyle=0;aspect=fixed;shape=mxgraph.aws4.resourceIcon;resIcon=mxgraph.aws4.sqs;" vertex="1" parent="1">
          <mxGeometry x="561.26" y="200" width="79.26" height="79.26" as="geometry" />
        </mxCell>
        <mxCell id="WRkgYcZH0lLzMve-OO3r-9" style="edgeStyle=orthogonalEdgeStyle;rounded=0;orthogonalLoop=1;jettySize=auto;html=1;exitX=1;exitY=0.5;exitDx=0;exitDy=0;exitPerimeter=0;entryX=1;entryY=0.5;entryDx=0;entryDy=0;entryPerimeter=0;" edge="1" parent="1" source="WRkgYcZH0lLzMve-OO3r-6" target="90iIxKaVmGGHc_GEmaOm-35">
          <mxGeometry relative="1" as="geometry" />
        </mxCell>
        <mxCell id="WRkgYcZH0lLzMve-OO3r-12" value="Data Clean e&amp;nbsp;&lt;div&gt;Normalização&lt;/div&gt;" style="edgeLabel;html=1;align=center;verticalAlign=middle;resizable=0;points=[];" vertex="1" connectable="0" parent="WRkgYcZH0lLzMve-OO3r-9">
          <mxGeometry x="-0.0613" relative="1" as="geometry">
            <mxPoint x="41" y="10" as="offset" />
          </mxGeometry>
        </mxCell>
        <mxCell id="WRkgYcZH0lLzMve-OO3r-14" style="edgeStyle=orthogonalEdgeStyle;rounded=0;orthogonalLoop=1;jettySize=auto;html=1;exitX=1;exitY=0.5;exitDx=0;exitDy=0;exitPerimeter=0;entryX=0;entryY=0.5;entryDx=0;entryDy=0;entryPerimeter=0;" edge="1" parent="1" source="90iIxKaVmGGHc_GEmaOm-36" target="WRkgYcZH0lLzMve-OO3r-1">
          <mxGeometry relative="1" as="geometry" />
        </mxCell>
        <mxCell id="WRkgYcZH0lLzMve-OO3r-25" value="Notificação de&amp;nbsp;&lt;div&gt;Criação&lt;/div&gt;" style="edgeLabel;html=1;align=center;verticalAlign=middle;resizable=0;points=[];" vertex="1" connectable="0" parent="WRkgYcZH0lLzMve-OO3r-14">
          <mxGeometry x="0.2152" relative="1" as="geometry">
            <mxPoint x="-16" y="-20" as="offset" />
          </mxGeometry>
        </mxCell>
        <mxCell id="WRkgYcZH0lLzMve-OO3r-15" style="edgeStyle=orthogonalEdgeStyle;rounded=0;orthogonalLoop=1;jettySize=auto;html=1;exitX=1;exitY=0.5;exitDx=0;exitDy=0;exitPerimeter=0;entryX=0;entryY=0.5;entryDx=0;entryDy=0;entryPerimeter=0;" edge="1" parent="1" source="WRkgYcZH0lLzMve-OO3r-1" target="WRkgYcZH0lLzMve-OO3r-6">
          <mxGeometry relative="1" as="geometry" />
        </mxCell>
        <mxCell id="WRkgYcZH0lLzMve-OO3r-26" value="Mensagens com&amp;nbsp;&lt;div&gt;Metadados&lt;/div&gt;" style="edgeLabel;html=1;align=center;verticalAlign=middle;resizable=0;points=[];" vertex="1" connectable="0" parent="WRkgYcZH0lLzMve-OO3r-15">
          <mxGeometry x="-0.2506" y="3" relative="1" as="geometry">
            <mxPoint x="12" y="-19" as="offset" />
          </mxGeometry>
        </mxCell>
        <mxCell id="WRkgYcZH0lLzMve-OO3r-17" style="edgeStyle=orthogonalEdgeStyle;rounded=0;orthogonalLoop=1;jettySize=auto;html=1;exitX=0;exitY=0.5;exitDx=0;exitDy=0;exitPerimeter=0;entryX=0;entryY=0.5;entryDx=0;entryDy=0;entryPerimeter=0;" edge="1" parent="1" source="90iIxKaVmGGHc_GEmaOm-37" target="90iIxKaVmGGHc_GEmaOm-34">
          <mxGeometry relative="1" as="geometry" />
        </mxCell>
        <mxCell id="WRkgYcZH0lLzMve-OO3r-20" style="edgeStyle=orthogonalEdgeStyle;rounded=0;orthogonalLoop=1;jettySize=auto;html=1;exitX=0;exitY=0.5;exitDx=0;exitDy=0;exitPerimeter=0;entryX=1;entryY=0.5;entryDx=0;entryDy=0;entryPerimeter=0;" edge="1" parent="1" source="90iIxKaVmGGHc_GEmaOm-35" target="90iIxKaVmGGHc_GEmaOm-37">
          <mxGeometry relative="1" as="geometry" />
        </mxCell>
      </root>
    </mxGraphModel>
  </diagram>
</mxfile>
